
<svg width="48" height="48" viewBox="0 0 48 48" fill="none" xmlns="http://www.w3.org/2000/svg">
<path fill-rule="evenodd" clip-rule="evenodd" d="M4.74519 8.64523C20.4825 -0.674056 36.5682 4.75997 42.6665 8.65405C42.8887 8.79591 42.9625 9.08587 42.8353 9.31674L41.5695 11.6143C41.4373 11.8543 41.1366 11.9431 40.8951 11.8136C34.2773 8.26242 20.3791 4.44517 6.50853 11.8412C6.2668 11.9701 5.96636 11.8805 5.83475 11.6402L4.56144 9.31567C4.43191 9.0792 4.51319 8.78262 4.74519 8.64523ZM5.67225 9.26203L6.4758 10.729C20.291 3.58962 34.0399 7.16001 40.9301 10.7025L41.7306 9.24965C35.6079 5.54268 20.5143 0.727792 5.67225 9.26203ZM6.46458 12.6246C20.3868 5.20751 34.3258 9.04817 40.9399 12.5968C41.0576 12.6599 41.1451 12.7676 41.183 12.8957C41.2208 13.0238 41.2059 13.1617 41.1414 13.2787L24.0823 44.2413C23.9943 44.4011 23.8262 44.5002 23.6438 44.5C23.4614 44.4998 23.2935 44.4002 23.2059 44.2402L6.26115 13.3061C6.19696 13.1889 6.18234 13.0509 6.22056 12.9228C6.25878 12.7948 6.34665 12.6874 6.46458 12.6246ZM7.3829 13.2724L23.6457 42.9615L40.0192 13.2432C33.4971 9.90306 20.4591 6.53811 7.3829 13.2724ZM14.3807 14.2945C13.4316 14.2945 12.6622 15.064 12.6622 16.0131C12.6622 16.9622 13.4316 17.7316 14.3807 17.7316C14.6568 17.7316 14.8807 17.9555 14.8807 18.2316C14.8807 18.5078 14.6568 18.7316 14.3807 18.7316C12.8793 18.7316 11.6622 17.5145 11.6622 16.0131C11.6622 14.5117 12.8793 13.2945 14.3807 13.2945C15.8821 13.2945 17.0993 14.5117 17.0993 16.0131C17.0993 16.2892 16.8754 16.5131 16.5993 16.5131C16.3231 16.5131 16.0993 16.2892 16.0993 16.0131C16.0993 15.064 15.3298 14.2945 14.3807 14.2945ZM31.2417 14.2945C30.2926 14.2945 29.5231 15.064 29.5231 16.0131C29.5231 16.2892 29.2993 16.5131 29.0231 16.5131C28.747 16.5131 28.5231 16.2892 28.5231 16.0131C28.5231 14.5117 29.7403 13.2945 31.2417 13.2945C32.7431 13.2945 33.9603 14.5117 33.9603 16.0131C33.9603 17.5145 32.7431 18.7316 31.2417 18.7316C30.9656 18.7316 30.7417 18.5078 30.7417 18.2316C30.7417 17.9555 30.9656 17.7316 31.2417 17.7316C32.1908 17.7316 32.9603 16.9622 32.9603 16.0131C32.9603 15.064 32.1908 14.2945 31.2417 14.2945ZM23.2549 19.6191C22.3058 19.6191 21.5364 20.3885 21.5364 21.3376C21.5364 22.2868 22.3058 23.0562 23.2549 23.0562C23.5311 23.0562 23.7549 23.28 23.7549 23.5562C23.7549 23.8323 23.5311 24.0562 23.2549 24.0562C21.7535 24.0562 20.5364 22.839 20.5364 21.3376C20.5364 19.8362 21.7535 18.6191 23.2549 18.6191C24.7563 18.6191 25.9735 19.8362 25.9735 21.3376C25.9735 21.6138 25.7496 21.8376 25.4735 21.8376C25.1973 21.8376 24.9735 21.6138 24.9735 21.3376C24.9735 20.3885 24.204 19.6191 23.2549 19.6191ZM22.7549 28.8807C22.7549 28.6046 22.9788 28.3807 23.2549 28.3807C24.7563 28.3807 25.9735 29.5978 25.9735 31.0993C25.9735 32.6007 24.7563 33.8178 23.2549 33.8178C21.7535 33.8178 20.5364 32.6007 20.5364 31.0993C20.5364 30.8231 20.7602 30.5993 21.0364 30.5993C21.3125 30.5993 21.5364 30.8231 21.5364 31.0993C21.5364 32.0484 22.3058 32.8178 23.2549 32.8178C24.204 32.8178 24.9735 32.0484 24.9735 31.0993C24.9735 30.1501 24.204 29.3807 23.2549 29.3807C22.9788 29.3807 22.7549 29.1568 22.7549 28.8807Z" fill="black"/>
</svg>
