
<svg width="48" height="48" viewBox="0 0 48 48" fill="none" xmlns="http://www.w3.org/2000/svg">
<path fill-rule="evenodd" clip-rule="evenodd" d="M16.9058 8.30617C18.0623 7.1497 19.6308 6.5 21.2663 6.5H40.3333C43.7391 6.5 46.5 9.26091 46.5 12.6667V36C46.5 39.4058 43.7391 42.1667 40.3333 42.1667H21.2663C19.6308 42.1667 18.0623 41.517 16.9058 40.3605L1.93934 25.394C1.35355 24.8082 1.35355 23.8585 1.93934 23.2727L16.9058 8.30617ZM21.2663 9.5C20.4265 9.5 19.621 9.83363 19.0272 10.4275L5.12132 24.3333L19.0272 38.2392C19.621 38.833 20.4265 39.1667 21.2663 39.1667H40.3333C42.0822 39.1667 43.5 37.7489 43.5 36V12.6667C43.5 10.9178 42.0822 9.5 40.3333 9.5H21.2663ZM22.9393 18.606C23.5251 18.0202 24.4749 18.0202 25.0607 18.606L28.6667 22.212L32.2727 18.606C32.8585 18.0202 33.8082 18.0202 34.394 18.606C34.9798 19.1918 34.9798 20.1415 34.394 20.7273L30.788 24.3333L34.394 27.9393C34.9798 28.5251 34.9798 29.4749 34.394 30.0607C33.8082 30.6464 32.8585 30.6464 32.2727 30.0607L28.6667 26.4547L25.0607 30.0607C24.4749 30.6464 23.5251 30.6464 22.9393 30.0607C22.3536 29.4749 22.3536 28.5251 22.9393 27.9393L26.5453 24.3333L22.9393 20.7273C22.3536 20.1415 22.3536 19.1918 22.9393 18.606Z" fill="#111827"/>
</svg>
