
<svg width="48" height="48" viewBox="0 0 48 48" fill="none" xmlns="http://www.w3.org/2000/svg">
<path fill-rule="evenodd" clip-rule="evenodd" d="M3.5 3.5C2.67157 3.5 2 4.17157 2 5C2 5.82843 2.67157 6.5 3.5 6.5H8.25774L13.372 33.4658C13.5958 34.6459 14.6271 35.5 15.8282 35.5H42C42.8284 35.5 43.5 34.8284 43.5 34C43.5 33.1716 42.8284 32.5 42 32.5H16.2423L15.294 27.5H41.1484C42.3754 27.5 43.4211 26.6095 43.6165 25.3981L45.7939 11.8981C46.039 10.3782 44.8653 9 43.3258 9H11.7854L11.128 5.53417C10.9042 4.35412 9.87291 3.5 8.67183 3.5H3.5ZM42.7387 12L40.7225 24.5H14.725L12.3543 12H42.7387Z" fill="black"/>
<path d="M43.3258 10.5H11.7506C11.1236 10.5 10.6513 11.0703 10.7681 11.6863L13.3284 25.1863C13.418 25.6584 13.8305 26 14.3109 26H41.1484C41.6392 26 42.0574 25.6438 42.1356 25.1592L44.313 11.6592C44.4111 11.0513 43.9416 10.5 43.3258 10.5Z" fill="black"/>
<circle cx="18.5" cy="39.5" r="2.5" fill="black"/>
<circle cx="38.5" cy="39.5" r="2.5" fill="black"/>
</svg>
