
<svg width="48" height="48" viewBox="0 0 48 48" fill="none" xmlns="http://www.w3.org/2000/svg">
<path d="M40.2848 15.1209L32.5848 7.56871M40.2848 15.1209L25.2804 29.8373C24.5214 30.5818 23.4919 31 22.4184 31H16V24.7618C16 23.6754 16.454 22.6364 17.2561 21.8871L32.5848 7.56871L40.2848 15.1209ZM40.2848 15.1209L43.4073 12.0585C44.1976 11.2833 44.1976 10.0266 43.4073 9.25144L38.6458 4.58136C37.869 3.81955 36.6145 3.80454 35.8191 4.54755L32.5848 7.56871L40.2848 15.1209Z" stroke="black" stroke-width="3" stroke-linejoin="round"/>
<path d="M27 4H8C5.79086 4 4 5.79086 4 8V40C4 42.2091 5.79086 44 8 44H40C42.2091 44 44 42.2091 44 40V23" stroke="black" stroke-width="3" stroke-linecap="round" stroke-linejoin="round"/>
</svg>
