
<svg width="48" height="48" viewBox="0 0 48 48" fill="none" xmlns="http://www.w3.org/2000/svg">
<path fill-rule="evenodd" clip-rule="evenodd" d="M10.5 2C7.73858 2 5.5 4.23858 5.5 7V41C5.5 43.7614 7.73858 46 10.5 46H28.5C31.2614 46 33.5 43.7614 33.5 41V33.5419H31.5V35H7.5V11H31.5V14.5419H33.5V7C33.5 4.23858 31.2614 2 28.5 2H10.5ZM17.5 6C16.9477 6 16.5 6.44772 16.5 7C16.5 7.55228 16.9477 8 17.5 8H21.5C22.0523 8 22.5 7.55228 22.5 7C22.5 6.44772 22.0523 6 21.5 6H17.5ZM21.5 40C21.5 41.1046 20.6046 42 19.5 42C18.3954 42 17.5 41.1046 17.5 40C17.5 38.8954 18.3954 38 19.5 38C20.6046 38 21.5 38.8954 21.5 40ZM25.5 7C25.5 6.44772 25.9477 6 26.5 6C27.0523 6 27.5 6.44772 27.5 7C27.5 7.55228 27.0523 8 26.5 8C25.9477 8 25.5 7.55228 25.5 7Z" fill="black"/>
<path d="M24.5 16.542C22.8431 16.542 21.5 17.8851 21.5 19.542V20.542H42.5V19.542C42.5 17.8851 41.1569 16.542 39.5 16.542H24.5Z" fill="black"/>
<path fill-rule="evenodd" clip-rule="evenodd" d="M42.5 21.542H21.5V28.542C21.5 30.1988 22.8431 31.542 24.5 31.542H39.5C41.1569 31.542 42.5 30.1988 42.5 28.542V21.542ZM34.5 27.542C34.8643 27.542 35.2058 27.4446 35.5 27.2744C35.7942 27.4446 36.1357 27.542 36.5 27.542C37.6046 27.542 38.5 26.6465 38.5 25.542C38.5 24.4374 37.6046 23.542 36.5 23.542C36.1357 23.542 35.7942 23.6394 35.5 23.8095C35.2058 23.6394 34.8643 23.542 34.5 23.542C33.3954 23.542 32.5 24.4374 32.5 25.542C32.5 26.6465 33.3954 27.542 34.5 27.542Z" fill="black"/>
</svg>
