
<svg width="48" height="48" viewBox="0 0 48 48" fill="none" xmlns="http://www.w3.org/2000/svg">
<path fill-rule="evenodd" clip-rule="evenodd" d="M5 2H33C34.6569 2 36 3.34315 36 5V10H13C11.3431 10 10 11.3431 10 13V36H5C3.34315 36 2 34.6569 2 33V5C2 3.34315 3.34315 2 5 2Z" fill="black"/>
<path fill-rule="evenodd" clip-rule="evenodd" d="M12 15C12 13.3431 13.3431 12 15 12H43C44.6569 12 46 13.3431 46 15V43C46 44.6569 44.6569 46 43 46H15C13.3431 46 12 44.6569 12 43V15ZM29 21.5C29.8284 21.5 30.5 22.1716 30.5 23V27.5H35C35.8284 27.5 36.5 28.1716 36.5 29C36.5 29.8284 35.8284 30.5 35 30.5H30.5V35C30.5 35.8284 29.8284 36.5 29 36.5C28.1716 36.5 27.5 35.8284 27.5 35V30.5H23C22.1716 30.5 21.5 29.8284 21.5 29C21.5 28.1716 22.1716 27.5 23 27.5H27.5V23C27.5 22.1716 28.1716 21.5 29 21.5Z" fill="black"/>
</svg>
